<svg id="Layer_1" data-name="Layer 1" xmlns="http://www.w3.org/2000/svg" viewBox="0 0 917.76 917.81"><defs><style>.cls-1{fill:#539e4e;}.cls-2{fill:#002b5c;}.cls-3{fill:teal;}</style></defs><path class="cls-1" d="M672,865.19A476.17,476.17,0,0,0,788.2,778.26q12.33-13.38,24.44-27c7.44-9.58,14.69-19.34,21.91-29.1,1.78-2.46,3.65-4.85,5.33-7.38l4.8-7.74,9.49-15.57c3.07-5.24,6.39-10.34,9.2-15.73l8-16.39c11.2-21.63,19.15-44.75,26.84-67.81q4.71-17.64,9.1-35.37c2.77-11.84,4.11-24,6.07-36,.77-6,2-12,2.32-18.06l1-18.15c.46-12.11,1.64-24.21.67-36.32-.56-12.1-1.13-24.22-2-36.3q-2.55-18-5.43-36.07L799,395.8a114.09,114.09,0,0,0-3.55-16.52l-4.21-16.38,108.41-31.26c-30.11-104.56-98.38-196.76-189-256.29L592.92,254.48C636.6,283.89,672.17,327,689,376.91l3.51,9.23,2.33,9.59,2.5,9.54c.4,1.6,1,3.16,1.24,4.78l.67,4.9,3,19.56c.2,6.64.51,13.25.94,19.88a266.54,266.54,0,0,1-11,78.11l107.61,33.92c-4,10.92-7.88,21.93-12.13,32.76L683.9,554.85c-22,51.15-62.36,94.44-111.56,120.55Z"/><path class="cls-2" d="M214.38,458.88c1.14-21,2.26-42.1,8.38-62.12,2-10.3,6.32-19.85,9.65-29.73a38.43,38.43,0,0,1,3.1-7.19l3.44-7,3.35-7.09c.56-1.18,1.06-2.39,1.67-3.54l2.09-3.33q4.17-6.64,8.15-13.42l2-3.37,2.41-3.12,4.75-6.26,4.67-6.33c.78-1.05,1.5-2.15,2.32-3.17l2.7-2.87q5.37-5.76,10.58-11.66c15-14.62,30.91-28.59,49.18-38.88,70.95-44.36,166.29-46.43,239.92-7.22L672.78,53,642.39,38.32c-5-2.57-10.37-4.3-15.62-6.32l-15.84-5.82L595,20.52,578.73,16.2,562.38,12c-5.46-1.31-10.87-2.91-16.45-3.62L512.62,3.3a136.21,136.21,0,0,0-16.73-1.57L479.12.84,462.34.09c-5.59-.32-11.19.29-16.78.43Q428.78,1.29,412,2.34l11.43,112.25L390,119.7,367.6,9.11C294.13,24.29,224.7,57.77,166.76,105l71.87,87-25,22.84-80-79.58A459.14,459.14,0,0,0,0,458.88Z"/><path class="cls-3" d="M323.54,897.44a496.24,496.24,0,0,1-121.13-58,497.45,497.45,0,0,1-98.93-90.39,486.2,486.2,0,0,1-68.76-115.2C17.58,592.26,7.27,548.12,2.23,503.57l213.38-20.69c3,23.72,8.2,47.09,17.26,69.19a273.43,273.43,0,0,0,36.62,61.36,285.08,285.08,0,0,0,52.86,48.35,285,285,0,0,0,64.38,30.81Z"/><path class="cls-3" d="M367.08,908.58,409.81,698.5c11.89,1.31,23.51,4.31,35.62,4.12l9,.51,4.5.31,4.5-.31q9-.58,18-.88c6-.31,11.81-1.82,17.74-2.52L508,698.5l8.64-2.31c5.71-1.66,11.64-2.61,17.25-4.6,5.57-2.15,11.15-4.2,16.78-6.16L631.3,884.08l-31.67,11.57c-10.63,3.6-21.65,6-32.49,8.9l-16.36,4-16.62,2.66c-11.11,1.55-22.18,3.73-33.33,4.51l-33.52,1.72-8.38.34-8.38-.34-16.77-.79C411.39,916.31,389.24,912,367.08,908.58Z"/></svg>